<svg version="1.0" xmlns="http://www.w3.org/2000/svg" viewBox="0 0 4255 3424" preserveAspectRatio="xMidYMid meet">
        <defs>
           <linearGradient id="lg0" gradientUnits="userSpaceOnUse" x1="5.0281954%" y1="0.0%" x2="5.0281954%" y2="76.63551%">
              <stop offset="0%" style="stop-color:rgb(221,220,192);"></stop>
              <stop offset="1%" style="stop-color:rgb(221,220,0);"></stop>
              <stop offset="15%" style="stop-color:rgb(160,202,110);"></stop>
              <stop offset="32%" style="stop-color:rgb(194,211,65);"></stop>
              <stop offset="82%" style="stop-color:rgb(21,180,179);"></stop>
              <stop offset="100%" style="stop-color:rgb(0,169,205);"></stop>
           </linearGradient>
        </defs>
      <g fill="#373736">
       <path d="M 126.97 3286.23 c -29.19 -6.20 -57.39 -22.79 -81.58 -47.39 l -15.60 -15.80 20.60 -16.20 c 11.40 -9 23.79 -18.80 27.79 -21.79 l 7.20 -5.60 11.80 12 c 7.80 8 16.80 14.60 26.79 19.40 14 7 15.80 7.40 33.99 7.40 16.20 0 20.60 -0.80 29.99 -5.20 29.99 -14 41.19 -38.39 28.99 -62.99 -5.20 -10.20 -33.59 -39.19 -104.58 -106.77 -22.79 -21.59 -37.99 -37.79 -44.19 -46.99 -37.39 -55.99 -18.60 -123.77 42.39 -152.76 19.80 -9.40 32.19 -12.20 54.79 -12.20 32.59 0 61.99 12.40 88.18 36.99 l 15 14.20 -27.39 22.39 -27.39 22.19 -7.60 -7.60 c -4.20 -4.20 -12.60 -10.20 -18.80 -13.20 -10 -4.80 -13.20 -5.40 -25.99 -4.60 -12.20 0.60 -16.60 1.80 -24.59 6.60 -11.80 7.20 -19.60 20.40 -18 30.39 2.40 15.60 5.80 19.40 90.18 100.58 61.59 59.39 67.78 66.78 77.18 93.98 5.40 16 7.20 42.39 3.80 57.79 -7.40 34.39 -34.39 67.38 -68.78 84.18 -26.79 13 -64.58 17.60 -94.18 11 z "></path>
       <path d="M 887.79 3170.25 l 0 -118.97 -79.18 -107.57 -79.18 -107.37 36.59 -0.60 c 27.59 -0.40 37.19 0.20 38.99 2 1.40 1.40 28.19 37.79 59.79 80.58 31.39 42.99 57.79 78.18 58.59 78.38 0.80 0.20 27.99 -35.99 60.39 -80.38 l 58.99 -80.78 37.39 -0.20 37.39 0 -79.78 108.77 -79.98 108.77 0 118.17 0 118.17 -34.99 0 -34.99 0 0 -118.97 z "></path>
       <path d="M 1648.61 3286.23 c -29.19 -6.20 -57.39 -22.79 -81.58 -47.39 l -15.60 -15.80 20.60 -16.20 c 11.40 -9 23.79 -18.80 27.79 -21.79 l 7.20 -5.60 11.80 12 c 7.80 8 16.80 14.60 26.79 19.40 14 7 15.80 7.40 33.99 7.40 16.20 0 20.60 -0.80 29.99 -5.20 29.99 -14 41.19 -38.39 28.99 -62.99 -5.20 -10.20 -33.59 -39.19 -104.58 -106.77 -22.79 -21.59 -37.99 -37.79 -44.19 -46.99 -37.39 -55.99 -18.60 -123.77 42.39 -152.76 19.80 -9.40 32.19 -12.20 54.79 -12.20 32.59 0 61.99 12.40 88.18 36.99 l 15 14.20 -27.39 22.39 -27.39 22.19 -7.60 -7.60 c -4.20 -4.20 -12.60 -10.20 -18.80 -13.20 -10 -4.80 -13.20 -5.40 -25.99 -4.60 -12.20 0.60 -16.60 1.80 -24.59 6.60 -11.80 7.20 -19.60 20.40 -18 30.39 2.40 15.60 5.80 19.40 90.18 100.58 61.59 59.39 67.78 66.78 77.18 93.98 5.40 16 7.20 42.39 3.80 57.79 -7.40 34.39 -34.39 67.38 -68.78 84.18 -26.79 13 -64.58 17.60 -94.18 11 z "></path>
       <path d="M 2377.44 3093.27 l 0 -196.15 -62.99 0.60 -62.99 0.60 0 -31.39 0 -31.59 160.96 0 160.96 0 0 30.99 0 30.99 -62.99 0 -62.99 0 0 195.95 0 195.95 -34.99 0 -34.99 0 0 -195.95 z "></path>
       <path d="M 3027.29 3062.28 l 0 -226.95 135.97 0 135.97 0 0 30.99 0 30.99 -100.98 0 -100.98 0 0 61.99 0 61.99 82.98 0 82.98 0 0 30.99 0 30.99 -82.98 0 -82.98 0 0 71.98 0 71.98 100.98 0 100.98 0 0 30.99 0 30.99 -135.97 0 -135.97 0 0 -226.95 z "></path>
       <path d="M 3773.11 3053.88 c 0 -132.17 0.80 -234.54 1.80 -233.35 0.80 1 47.79 70.58 104.18 154.76 56.39 84.18 103.58 154.16 104.98 155.56 2 2.20 22.99 -27.99 107.97 -154.96 58.19 -86.58 105.98 -157.96 106.38 -158.36 0.20 -0.40 0.60 105.38 0.60 235.34 l 0 236.34 -34.99 0 -34.99 0 0 -120.37 c 0 -103.58 -0.40 -119.97 -2.80 -117.57 -1.60 1.60 -33.19 48.39 -70.38 103.98 -36.99 55.59 -67.98 101.78 -68.78 102.58 -0.80 0.80 -33.19 -45.79 -72.18 -103.58 l -70.78 -105.18 -0.60 119.97 -0.40 120.17 -34.99 0 -34.99 0 0 -235.34 z "></path>
       <path d="M 705.83 1320.29 c 0.20 -995.57 0.60 -1314.29 2.40 -1311.29 8 13.80 1071.95 1755.79 1073.15 1756.99 2.20 2.40 927.58 -1514.44 981.97 -1610.02 25.99 -45.59 56.19 -98.78 67.18 -117.97 l 19.80 -34.99 1 533.87 1 533.87 360.92 -532.27 360.92 -532.27 224.55 0 c 123.37 -0.20 224.35 0.20 224.35 0.80 0 0.40 -188.56 284.53 -418.90 631.05 -230.55 346.72 -418.70 631.25 -418.30 632.45 0.60 1.20 227.35 307.73 503.88 681.04 l 503.08 678.84 -222.35 0.60 c -209.55 0.40 -222.35 0.20 -225.55 -3 -1.80 -2 -203.35 -265.74 -447.89 -586.26 l -444.70 -582.66 -0.60 588.06 -0.40 588.26 -175.96 0 c -115.97 0 -175.96 -0.60 -175.96 -2 0 -1 -1.80 -2 -4 -2 -4 0 -4 -1.60 -4.40 -660.04 l -0.60 -660.24 -353.92 580.26 c -314.33 515.48 -354.12 579.86 -356.52 576.66 -1.40 -2 -162.36 -264.54 -357.72 -583.46 -195.15 -318.93 -356.32 -581.26 -357.72 -582.86 -2.40 -2.40 -2.80 96.38 -2.80 665.44 l 0 668.24 -177.96 0 -177.96 0 0 -1315.09 z "></path>
      </g>
      <g fill="#00aec4">
       <path fill="url(#lg0)" d="M 27.99 1724.59 l 0 -908.79 185.96 0 185.96 0 0 908.79 0 908.79 -185.96 0 -185.96 0 0 -908.79 z "></path>
      </g>
      <g fill="#0eb4b6">
       <path fill="url(#lg0)" d="M 27.99 1566.63 l 0 -750.82 185.96 0 185.96 0 0 750.82 0 750.82 -185.96 0 -185.96 0 0 -750.82 z "></path>
      </g>
      <g fill="#21b6b1">
       <path fill="url(#lg0)" d="M 28.39 1489.25 l -0.40 -673.44 185.96 0 185.96 0 0 662.84 0 662.84 -184.76 0 -184.96 0 -0.80 10.60 c -0.40 5.60 -0.80 -292.53 -1 -662.84 z "></path>
      </g>
      <g fill="#3eb8aa">
       <path fill="url(#lg0)" d="M 28.19 1448.26 l -0.20 -632.45 185.96 0 185.96 0 0 626.85 0 626.85 -184.76 0 -184.96 0 -0.80 5.60 c -0.40 3 -1 -279.13 -1.20 -626.85 z "></path>
      </g>
      <g fill="#5cbca1">
       <path fill="url(#lg0)" d="M 28.39 1376.28 l -0.40 -560.47 185.96 0 185.96 0 0 553.87 0 553.87 -184.76 0 -184.96 0 -0.80 6.60 c -0.40 3.40 -1 -245.74 -1 -553.87 z "></path>
      </g>
      <g fill="#d6da13">
       <path fill="url(#lg0)" d="M418.30 203.95 C 418.30 316.73 326.72 408.10 213.95 408.10 101.18 408.10 9.80 316.73 9.80 203.95 9.80 91.18 101.18 -0.40 213.95 -0.40 326.72 -0.40 418.30 91.18 418.30 203.95 Z M192.75 405.70 "></path>
      </g>
      <g fill="#74c094">
       <path fill="url(#lg0)" d="M 28.39 1308.29 l -0.40 -492.48 185.96 0 185.96 0 0 481.49 0 481.69 -111.37 1.20 c -61.19 0.80 -144.37 1.40 -184.76 1.40 l -73.58 0 -0.80 9.60 c -0.40 5.20 -0.80 -212.15 -1 -482.89 z "></path>
      </g>
      <g fill="#87c487">
       <path fill="url(#lg0)" d="M 28.39 1221.31 l -0.40 -405.50 185.96 0 185.96 0 0 393.91 0 393.91 -184.96 0 -184.76 0 -0.80 11.60 c -0.40 6.20 -0.80 -170.96 -1 -393.91 z "></path>
      </g>
      <g fill="#c4d43f">
       <path fill="url(#lg0)" d="M 28.39 1138.33 l -0.40 -322.52 185.96 0 185.96 0 0 311.93 0 311.93 -73.38 0 c -40.59 0 -123.77 0 -184.96 0 l -111.37 0 -0.80 10.60 c -0.40 5.60 -0.80 -134.77 -1 -311.93 z "></path>
       <path fill="url(#lg0)" d="M 192.75 405.70 c -63.19 -4.80 -121.97 -41.19 -155.36 -96.38 -9.60 -16 -18.20 -38.19 -22.39 -58.39 -3.60 -16.40 -5 -61.59 -2.20 -64.58 0.80 -0.80 92.18 -1.40 202.75 -1.40 l 201.35 0 -0.20 28.99 c -0.40 25.19 -1 31.39 -5.60 46.79 -6 20 -15.40 39.79 -26.99 56.79 -32.99 48.59 -91.78 83.78 -146.17 87.58 -8.20 0.40 -17.60 1.20 -21 1.40 -3.20 0.40 -14.20 0 -24.19 -0.80 z "></path>
      </g>
      <g fill="#98c879">
       <path fill="url(#lg0)" d="M 28.39 1239.71 c -0.20 -121.57 0.20 -237.74 1 -258.34 l 1.20 -37.59 112.17 -0.40 c 61.79 -0.40 144.77 -0.40 184.76 0 l 72.38 0.40 0 247.94 0 247.94 -73.38 0 c -40.59 0 -123.77 0 -184.96 0 l -111.37 0 -0.80 10.60 c -0.40 5.60 -0.80 -88.98 -1 -210.55 z "></path>
       <path fill="url(#lg0)" d="M 192.75 405.70 c -64.98 -5 -123.77 -42.39 -157.16 -100.18 -5.40 -9 -9.60 -18 -9.60 -19.80 0 -2 -0.80 -4 -2 -4.80 -1 -0.60 -1.40 -2.40 -0.80 -4 1 -2.60 26.39 -3 191.75 -3 l 190.76 0 -3.20 9.60 c -6.60 19.40 -27.39 49.39 -46.39 66.78 -35.59 32.59 -77.18 51.99 -118.17 54.79 -8.20 0.40 -17.60 1.20 -21 1.40 -3.20 0.40 -14.20 0 -24.19 -0.80 z "></path>
      </g>
      <g fill="#a8cc67">
       <path fill="url(#lg0)" d="M 28.79 1120.34 c 0.20 -95.78 0.80 -174.76 1.40 -175.36 1 -1 75.98 -1.40 297.33 -1.20 l 72.38 0 0 159.96 0 159.96 -184.96 0 -184.76 0 -0.80 15.60 c -0.40 8.40 -0.80 -62.99 -0.60 -158.96 z "></path>
       <path fill="url(#lg0)" d="M 140.77 394.71 c -29.59 -10.20 -62.59 -33.39 -83.78 -58.59 -13 -15.40 -30.99 -44.79 -30.99 -50.39 0 -2 -0.80 -4 -2 -4.80 -1 -0.60 -1.40 -2.40 -0.80 -4 1 -2.60 26.39 -3 191.75 -3 l 190.76 0 -3.20 9.60 c -1.80 5.20 -7 15.60 -11.40 22.99 -22.39 37.59 -57.99 68.38 -98.98 85.58 l -14 6 -62.59 0.40 c -58.99 0.40 -63.19 0.20 -74.78 -3.80 z "></path>
      </g>
      <g fill="#b5d057">
       <path fill="url(#lg0)" d="M 29.19 1031.96 c 0.20 -47.59 0.80 -86.98 1.40 -87.38 0.60 -0.60 91.58 -1 296.93 -0.80 l 72.38 0 0 66.98 0 66.98 -184.96 0 -184.76 0 -0.80 20.60 c -0.40 11.20 -0.60 -18.60 -0.20 -66.38 z "></path>
       <path fill="url(#lg0)" d="M 43.39 318.53 c -5 -7.60 -11 -18 -13.40 -23.59 -2.60 -5.40 -5.20 -11.40 -6 -13 -3.80 -8.20 -7.60 -8 190.96 -8 l 190.76 0 -3.20 9.60 c -3.80 11.20 -17.20 34.19 -25.19 42.99 -3.20 3.60 -5.20 5.20 -4.40 3.80 1 -1.80 -31.59 -2.40 -159.96 -2.40 -106.97 0 -160.76 0.60 -159.96 2 0.60 1.20 0.80 2 0.20 2 -0.40 0 -5 -6 -9.80 -13.40 z "></path>
      </g>
     </svg>